<?xml version="1.0" encoding="UTF-8"?>
<svg version="1.1" xmlns="http://www.w3.org/2000/svg" width="614" height="452">
<path d="M0 0 C202.62 0 405.24 0 614 0 C614 149.16 614 298.32 614 452 C411.38 452 208.76 452 0 452 C0 302.84 0 153.68 0 0 Z " fill="#FDFEFD" transform="translate(0,0)"/>
<path d="M0 0 C20.77076963 9.46790816 40.1480133 41.97372642 48.01904297 62.6809082 C48.95540616 65.4204464 49.83295098 68.17140852 50.6875 70.9375 C51.12932617 72.30551758 51.12932617 72.30551758 51.58007812 73.70117188 C55.14007699 85.02116827 56.34340331 95.57680867 56.3125 107.4375 C56.32861328 108.67048828 56.34472656 109.90347656 56.36132812 111.17382812 C56.36557138 119.2063175 55.34641537 126.31622209 53 134 C52.67 134 52.34 134 52 134 C51.89042969 133.154375 51.78085937 132.30875 51.66796875 131.4375 C49.92035295 118.93423251 46.54249262 107.69752766 36.25390625 99.48046875 C22.64238579 90.53979933 7.70163183 87.42435044 -8.37109375 90.68359375 C-11.06562549 91.60470318 -13.48880615 92.66069661 -16 94 C-16.7734375 94.4125 -17.546875 94.825 -18.34375 95.25 C-29.07446084 101.71782571 -35.84514221 111.30704308 -40 123 C-45.67278922 147.11805477 -37.12459728 170.52544469 -26.125 191.65625 C-24.4293576 195.18883833 -23.16328274 198.85101295 -21.89453125 202.5546875 C-21.08881857 204.96372738 -21.08881857 204.96372738 -19.92578125 206.8984375 C-18.63231538 209.83465959 -18.56643836 212.55936072 -18.375 215.75 C-18.26285156 217.50570312 -18.26285156 217.50570312 -18.1484375 219.296875 C-18.09945312 220.18890625 -18.05046875 221.0809375 -18 222 C-38.12271028 223.74138839 -58.84802681 213.04307656 -75 202 C-76.98495094 200.30963542 -78.73751365 198.59782743 -80.4765625 196.66015625 C-82.13454852 194.85337661 -83.91718348 193.3669592 -85.8125 191.8125 C-101.55627236 178.1050843 -112.57040523 157.66699577 -119 138 C-119 137.01 -119 136.02 -119 135 C-89.69205795 134.21717024 -68.52243825 138.62177708 -43 153 C-43.32613281 152.40574219 -43.65226562 151.81148437 -43.98828125 151.19921875 C-46.89934298 145.67764739 -48.89861814 140.42613739 -50.32421875 134.34765625 C-50.94037475 131.76130438 -50.94037475 131.76130438 -53 129 C-54.46754266 122.18909688 -54.22085336 115.18690079 -54.25 108.25 C-54.270625 107.03828125 -54.29125 105.8265625 -54.3125 104.578125 C-54.34590434 96.82831776 -53.29600295 90.3662826 -51 83 C-50.66088421 81.52996953 -50.33828358 80.05599608 -50.03515625 78.578125 C-44.55242457 53.45253574 -29.51920329 31.40124651 -12 13 C-10.72109375 11.54874114 -9.44949855 10.09098538 -8.1875 8.625 C-5.57359678 5.61467543 -2.86178319 2.77506249 0 0 Z " fill="#4A6C7A" transform="translate(316,12)"/>
<path d="M0 0 C4.76903502 -0.20638791 8.98175437 0.53615533 13.5625 1.75 C14.26431396 1.93264404 14.96612793 2.11528809 15.68920898 2.3034668 C17.79578925 2.8584582 19.89815505 3.42736898 22 4 C23.1240625 4.30035156 24.248125 4.60070312 25.40625 4.91015625 C36.60771144 8.11255426 46.91752143 13.13012641 56.9921875 18.93359375 C60.21327637 20.64440554 63.55633589 21.81037058 67 23 C67 23.66 67 24.32 67 25 C67.969375 25.2475 68.93875 25.495 69.9375 25.75 C73 27 73 27 73.84375 28.76171875 C74.41632294 36.96382605 64.67759959 46.80627237 60 53 C59.31035156 53.95777344 58.62070312 54.91554687 57.91015625 55.90234375 C37.08659628 84.55827348 5.71151619 107.33810766 -29.68041992 113.38696289 C-36.66004467 114.45989609 -43.63783724 114.59223105 -50.6875 114.5625 C-51.42435028 114.56168427 -52.16120056 114.56086853 -52.92037964 114.56002808 C-72.74048026 114.45970903 -89.0822487 109.33469326 -106 99 C-106.59441895 98.63938477 -107.18883789 98.27876953 -107.80126953 97.90722656 C-109.24054949 96.99816338 -110.62676153 96.00605106 -112 95 C-112 94.34 -112 93.68 -112 93 C-111.29875 92.95101562 -110.5975 92.90203125 -109.875 92.8515625 C-104.79256189 92.45104428 -100.01329793 91.90052661 -95.109375 90.5078125 C-93 90 -93 90 -90.578125 89.7421875 C-75.37988556 88.06780519 -60.00393625 80.26119711 -48 71 C-47.04867187 70.2678125 -46.09734375 69.535625 -45.1171875 68.78125 C-31.56685095 58.0000558 -20.67778801 45.57404967 -13 30 C-12.34 30 -11.68 30 -11 30 C-10.9175 29.360625 -10.835 28.72125 -10.75 28.0625 C-10.12241732 25.49987074 -9.40573505 23.55541991 -8.3125 21.1875 C-5.13369049 14.29030446 -2.62172455 7.12235169 0 0 Z " fill="#AABD7C" transform="translate(444,148)"/>
<path d="M0 0 C0.4021875 1.4540625 0.4021875 1.4540625 0.8125 2.9375 C6.63098753 23.1595464 17.43757747 44.49865173 33 59 C33.66257812 59.64453125 34.32515625 60.2890625 35.0078125 60.953125 C54.94063143 79.76760095 78.89998636 89.68843879 106 92 C105.20307512 96.51089556 104.39550244 98.76618815 101 102 C97.44781489 103.96414942 93.76369821 105.48956848 90 107 C89.1646875 107.36222656 88.329375 107.72445312 87.46875 108.09765625 C66.31538281 116.68305065 37.324407 117.95891639 16 110 C14.45119141 109.53207031 14.45119141 109.53207031 12.87109375 109.0546875 C5.48783085 106.81047732 -1.18269035 103.58100254 -8 100 C-9.5813762 99.20443111 -11.16443978 98.41219715 -12.75 97.625 C-13.8225 97.08875 -14.895 96.5525 -16 96 C-16 95.34 -16 94.68 -16 94 C-16.886875 93.74863281 -17.77375 93.49726563 -18.6875 93.23828125 C-24.36745585 91.11499587 -28.50442555 86.96949659 -33 83 C-33.85319824 82.24952393 -33.85319824 82.24952393 -34.72363281 81.48388672 C-42.5806077 74.5192612 -49.59303917 67.35239428 -56 59 C-56.55429688 58.33484375 -57.10859375 57.6696875 -57.6796875 56.984375 C-62.05314001 51.66927004 -65.73516914 45.91647627 -69.4375 40.125 C-69.98253174 39.279375 -70.52756348 38.43375 -71.08911133 37.5625 C-71.84744263 36.35980469 -71.84744263 36.35980469 -72.62109375 35.1328125 C-73.0792749 34.40980957 -73.53745605 33.68680664 -74.00952148 32.94189453 C-75 31 -75 31 -75 28 C-72.73162288 26.38491549 -70.53604849 24.9949922 -68.125 23.625 C-67.09052734 23.02401489 -67.09052734 23.02401489 -66.03515625 22.41088867 C-56.03856583 16.65233875 -45.76040268 12.11790749 -35 8 C-33.22689453 7.31357422 -33.22689453 7.31357422 -31.41796875 6.61328125 C-21.18644594 2.78937878 -11.00205962 -0.26427198 0 0 Z " fill="#AABD7B" transform="translate(191,148)"/>
<path d="M0 0 C1.20527344 0.00322266 2.41054688 0.00644531 3.65234375 0.00976562 C4.90660156 0.01814453 6.16085937 0.02652344 7.453125 0.03515625 C9.35771484 0.04192383 9.35771484 0.04192383 11.30078125 0.04882812 C14.43494336 0.06061069 17.56901041 0.07706209 20.703125 0.09765625 C19.91571545 6.41222214 18.25390246 11.31785992 15.703125 17.09765625 C15.43081055 17.73058594 15.15849609 18.36351562 14.87792969 19.015625 C10.54202408 29.03095627 5.72999787 37.65873773 -1.296875 46.09765625 C-2.22469701 47.26243281 -3.15174713 48.42782455 -4.078125 49.59375 C-20.7484512 70.20382996 -45.14378598 83.98437699 -71.296875 88.09765625 C-72.41835938 88.29488281 -72.41835938 88.29488281 -73.5625 88.49609375 C-75.46163474 88.79133739 -77.38114717 88.94316207 -79.296875 89.09765625 C-80.32683594 89.24332031 -81.35679687 89.38898438 -82.41796875 89.5390625 C-86.00184133 89.86043132 -88.7935942 89.94788069 -92.296875 89.09765625 C-98.71598144 82.8914555 -100.40131524 75.46394396 -100.671875 66.84765625 C-100.57847457 59.32467586 -98.69522663 54.82120899 -93.6640625 49.30859375 C-87.8861748 44.18568927 -80.7397611 41.41670429 -73.65600586 38.55664062 C-65.70833943 35.23554966 -59.149608 30.72956103 -55.109375 22.91015625 C-51.50710201 15.99945127 -46.04406673 13.19929164 -39.171875 10.16015625 C-38.39505371 9.81460693 -37.61823242 9.46905762 -36.81787109 9.11303711 C-28.84630663 5.69767664 -20.64135714 3.50050445 -12.20947266 1.54321289 C-10.94554392 1.24876945 -9.68967785 0.91698667 -8.44580078 0.546875 C-5.59907603 -0.04821402 -2.90756961 -0.01371495 0 0 Z " fill="#587842" transform="translate(416.296875,145.90234375)"/>
<path d="M0 0 C16.20370802 0.50636588 30.19026013 4.62382038 45 11 C46.13824219 11.47050781 47.27648437 11.94101563 48.44921875 12.42578125 C52.33077377 14.14664668 56.02783337 16.08862427 59.75 18.125 C64.7317235 20.87280707 64.7317235 20.87280707 70 23 C69.27698498 25.98846209 68.44764684 28.93062554 67.5625 31.875 C67.31628906 32.69742188 67.07007813 33.51984375 66.81640625 34.3671875 C66.24079252 36.22347292 65.62193952 38.06661929 64.97265625 39.8984375 C59.1216712 58.55579545 61.83422857 78.37035994 66 97 C62.44343939 96.02352419 59.15535932 95.07311027 55.8125 93.5 C51.55673379 91.5717581 47.07080213 91.07949311 42.4765625 90.4296875 C40 90 40 90 39 89 C30.85618677 87.80368358 22.65299719 87.67533491 14.4375 87.4375 C13.03319297 87.39420824 11.62889594 87.35059096 10.22460938 87.30664062 C6.81649049 87.20123489 3.4083068 87.09911018 0 87 C-5.06586059 57.93529853 -6.66499688 28.95108018 0 0 Z " fill="#9CBAB4" transform="translate(194,53)"/>
<path d="M0 0 C0.65268078 3.45707638 1.29584965 6.91586077 1.9375 10.375 C2.21110352 11.82326172 2.21110352 11.82326172 2.49023438 13.30078125 C7.00570256 37.76640889 6.59775939 63.21233206 -1 87 C-1.79470703 87.01458252 -2.58941406 87.02916504 -3.40820312 87.04418945 C-24.88443179 87.39898779 -24.88443179 87.39898779 -46 91 C-47.051875 91.25007813 -48.10375 91.50015625 -49.1875 91.7578125 C-54.14816731 93.01117259 -58.47379806 94.56281434 -63 97 C-63.66 97 -64.32 97 -65 97 C-64.68853528 95.10399631 -64.37578283 93.20820413 -64.0625 91.3125 C-63.88847656 90.25675781 -63.71445312 89.20101562 -63.53515625 88.11328125 C-63.22421536 86.30437697 -62.88659195 84.49890088 -62.48144531 82.70874023 C-61.48921476 77.12618547 -61.70988996 71.40662592 -61.6875 65.75 C-61.68421692 65.07759277 -61.68093384 64.40518555 -61.67755127 63.71240234 C-61.65848697 51.6637647 -63.08861867 41.19202471 -67.1328125 29.8125 C-68 27 -68 27 -68 23 C-59.54881319 17.96179248 -51.20854767 13.53897126 -42 10 C-40.96230469 9.57976563 -39.92460937 9.15953125 -38.85546875 8.7265625 C-26.03737466 3.61172447 -13.84601817 -0.06601201 0 0 Z " fill="#9AB6BD" transform="translate(440,53)"/>
<path d="M0 0 C23.12352232 -0.61764083 42.05109951 0.7150373 63 11 C63.67740234 11.33032227 64.35480469 11.66064453 65.05273438 12.00097656 C69.05591838 13.96074993 73.03584155 15.9621748 77 18 C77 18.99 77 19.98 77 21 C77.66 21 78.32 21 79 21 C79.24492187 21.98355469 79.48984375 22.96710938 79.7421875 23.98046875 C82.3186725 33.73558224 85.93709568 42.53848558 90.39794922 51.58251953 C93.04004365 56.94350767 95.41296155 62.25246791 97.28125 67.94140625 C97.93766911 70.01989467 97.93766911 70.01989467 99.0546875 71.85546875 C100.35842228 74.81311502 100.43209076 77.53484595 100.625 80.75 C100.73714844 82.50570312 100.73714844 82.50570312 100.8515625 84.296875 C100.90054688 85.18890625 100.94953125 86.0809375 101 87 C80.87728972 88.74138839 60.15197319 78.04307656 44 67 C42.01504906 65.30963542 40.26248635 63.59782743 38.5234375 61.66015625 C36.86545148 59.85337661 35.08281652 58.3669592 33.1875 56.8125 C17.44372764 43.1050843 6.42959477 22.66699577 0 3 C0 2.01 0 1.02 0 0 Z " fill="#587942" transform="translate(197,147)"/>
<path d="M0 0 C6.41504413 4.11531133 10.60554145 10.81662434 13 18 C14.26904764 28.2648284 11.66404594 35.95025925 5.3828125 44.09765625 C-2.2097481 51.77457864 -14.73622996 54.72272602 -25 57 C-26.32 57 -27.64 57 -29 57 C-28.72736328 57.55985596 -28.45472656 58.11971191 -28.17382812 58.6965332 C-26.94315522 61.23229791 -25.72149561 63.77230267 -24.5 66.3125 C-24.07074219 67.19357422 -23.64148438 68.07464844 -23.19921875 68.98242188 C-22.79316406 69.82998047 -22.38710938 70.67753906 -21.96875 71.55078125 C-21.40317383 72.72120972 -21.40317383 72.72120972 -20.82617188 73.9152832 C-19.58779101 77.04014555 -19.94435619 78.83306858 -21 82 C-21.07051114 84.73865287 -21.09357765 87.45027588 -21.0625 90.1875 C-21.05798828 90.93708984 -21.05347656 91.68667969 -21.04882812 92.45898438 C-21.03706354 94.30602383 -21.01912865 96.15302213 -21 98 C-25.00815134 94.29528265 -27.77103855 90.5222461 -30.5 85.8125 C-30.89018311 85.14903564 -31.28036621 84.48557129 -31.68237305 83.80200195 C-43.12755417 64.16297628 -51.3171202 42.81193657 -45.875 19.8125 C-42.49796401 9.77563491 -35.75222325 2.42921001 -26.75 -2.9375 C-17.34176357 -5.60316699 -8.69874602 -4.28572365 0 0 Z " fill="#BD9C77" transform="translate(338,124)"/>
<path d="M0 0 C1.16144531 -0.01417969 2.32289063 -0.02835937 3.51953125 -0.04296875 C10.44016476 0.12582719 17.33504403 1.26824905 24.1875 2.1875 C24.2639089 9.97959065 24.31625023 17.77158375 24.35229492 25.56396484 C24.36733019 28.21178803 24.38776376 30.85958653 24.41381836 33.50732422 C24.45043261 37.32525752 24.46727966 41.14285993 24.48046875 44.9609375 C24.49595261 46.13425629 24.51143646 47.30757507 24.52738953 48.51644897 C24.52927198 57.82438766 23.64723667 66.68612008 16.99609375 73.71875 C9.62429277 79.70535295 0.37617121 80.93918255 -8.8125 80.1875 C-13.90563593 79.16221512 -18.46692396 78.0845507 -22.8125 75.1875 C-22.14583333 72.52083333 -21.47916667 69.85416667 -20.8125 67.1875 C-15.23674242 67.94783058 -15.23674242 67.94783058 -13.0078125 69.20703125 C-8.34719768 71.28855139 -2.80337948 70.61528967 2.1875 70.1875 C5.7438993 68.87546267 5.7438993 68.87546267 8.1875 67.1875 C8.8475 67.1875 9.5075 67.1875 10.1875 67.1875 C12.04904299 62.59569395 13.31472441 58.98377991 13.25 54 C13.24097656 53.09894531 13.23195312 52.19789063 13.22265625 51.26953125 C13.21105469 50.58246094 13.19945312 49.89539063 13.1875 49.1875 C12.5275 49.950625 11.8675 50.71375 11.1875 51.5 C6.91353523 55.72594269 1.73523458 57.30032477 -4.1875 57.6875 C-10.77600453 57.40351274 -16.30071645 54.66737341 -20.96484375 50.0625 C-26.66931647 43.15647168 -27.00460264 36.98262994 -27.0625 28.3125 C-27.083125 27.54808594 -27.10375 26.78367187 -27.125 25.99609375 C-27.1801354 17.87740666 -24.93205537 11.64770373 -19.421875 5.66015625 C-13.8297074 0.54305143 -7.24282341 0.03923523 0 0 Z " fill="#27303B" transform="translate(233.8125,345.8125)"/>
<path d="M0 0 C36.94117647 0 36.94117647 0 46 7 C51.94689058 13.27727339 52.57868987 20.09254309 52.4375 28.44921875 C51.65359888 34.81141626 48.94078348 39.57514344 43.99609375 43.65234375 C38.67078156 47.13855382 33.69187591 49.26408423 27.26171875 49.1953125 C25.81865356 49.18781982 25.81865356 49.18781982 24.34643555 49.18017578 C23.13898682 49.16196777 21.93153809 49.14375977 20.6875 49.125 C16.830625 49.08375 12.97375 49.0425 9 49 C9 58.24 9 67.48 9 77 C6.03 77 3.06 77 0 77 C0 51.59 0 26.18 0 0 Z " fill="#BD9B78" transform="translate(348,326)"/>
<path d="M0 0 C6.19421053 3.57518191 9.65410541 6.88188088 12.1875 13.6875 C13.45929883 18.46946359 13.68778167 23.1419338 13.75 28.0625 C13.77090698 29.13141479 13.77090698 29.13141479 13.79223633 30.22192383 C13.72208554 38.06696817 10.6750055 43.91812431 5.359375 49.57421875 C-1.59127962 55.881801 -9.64482836 56.21015913 -18.6484375 55.82421875 C-23.67539138 55.4070587 -26.95493872 53.81682364 -30.625 50.375 C-31.18445313 49.94058594 -31.74390625 49.50617188 -32.3203125 49.05859375 C-37.04536789 45.05256852 -38.69574397 40.39967658 -39.625 34.375 C-40.36450132 24.24794024 -40.30502288 14.50837147 -34.9375 5.5625 C-25.23744003 -3.61323241 -12.09753523 -5.75572173 0 0 Z " fill="#1E2833" transform="translate(176.625,348.625)"/>
<path d="M0 0 C4.16748654 3.07542841 7.06171479 6.2783306 8.02734375 11.49609375 C8.1104654 12.93070951 8.1451975 14.3686488 8.14086914 15.80566406 C8.14079361 16.64623352 8.14071808 17.48680298 8.14064026 18.35284424 C8.13547897 19.25089783 8.13031769 20.14895142 8.125 21.07421875 C8.12358505 22.00079285 8.1221701 22.92736694 8.12071228 23.88201904 C8.11512199 26.83674367 8.10257125 29.79139208 8.08984375 32.74609375 C8.0848275 34.75130099 8.08026481 36.75650942 8.07617188 38.76171875 C8.06515574 43.67320638 8.04789775 48.58463715 8.02734375 53.49609375 C5.05734375 53.49609375 2.08734375 53.49609375 -0.97265625 53.49609375 C-0.97265625 51.51609375 -0.97265625 49.53609375 -0.97265625 47.49609375 C-1.59914063 47.91761719 -2.225625 48.33914063 -2.87109375 48.7734375 C-3.68835938 49.32128906 -4.505625 49.86914062 -5.34765625 50.43359375 C-6.15976562 50.97886719 -6.971875 51.52414062 -7.80859375 52.0859375 C-13.73915054 55.95043389 -21.53268547 55.14866606 -28.34765625 53.93359375 C-32.90431535 52.12664273 -35.43315964 49.66121967 -37.97265625 45.49609375 C-39.85902435 39.83698945 -39.87382742 33.66709703 -37.59765625 28.18359375 C-32.32682396 22.78726545 -26.28324399 20.21326532 -18.74609375 20.0078125 C-16.61272745 20.04053284 -14.47961178 20.09940353 -12.34765625 20.18359375 C-11.24808594 20.20615234 -10.14851563 20.22871094 -9.015625 20.25195312 C-6.33315789 20.31026763 -3.65367192 20.39204191 -0.97265625 20.49609375 C-1.69434811 13.47907704 -1.69434811 13.47907704 -5.640625 7.89453125 C-14.10113073 4.34369766 -24.34539396 6.07440609 -32.97265625 8.49609375 C-32.97265625 5.52609375 -32.97265625 2.55609375 -32.97265625 -0.50390625 C-22.14732717 -4.50095083 -10.33847911 -6.07235129 0 0 Z " fill="#1B2530" transform="translate(314.97265625,349.50390625)"/>
<path d="M0 0 C0.51949219 0.37382812 1.03898437 0.74765625 1.57421875 1.1328125 C2.50234375 1.7515625 3.43046875 2.3703125 4.38671875 3.0078125 C8.23909461 6.75012048 9.73782145 10.44695653 9.91479492 15.76123047 C9.91432406 17.54922401 9.89761943 19.3372654 9.8671875 21.125 C9.86294266 22.07094025 9.85869781 23.01688049 9.85432434 23.9914856 C9.83760181 26.99722383 9.79996138 30.0022787 9.76171875 33.0078125 C9.74666361 35.05207361 9.73297666 37.09634529 9.72070312 39.140625 C9.6877193 44.13828204 9.63598128 49.13543161 9.57421875 54.1328125 C6.93421875 54.1328125 4.29421875 54.1328125 1.57421875 54.1328125 C1.57421875 51.8228125 1.57421875 49.5128125 1.57421875 47.1328125 C1.00574219 47.61492187 0.43726563 48.09703125 -0.1484375 48.59375 C-6.43400953 53.7355368 -11.83072295 56.77015837 -20.2421875 56.5078125 C-26.25721918 55.47481958 -31.06726504 52.68540245 -35.05078125 48.1328125 C-37.47370163 42.82102552 -37.35906642 36.78951802 -36.42578125 31.1328125 C-34.10571366 26.32871494 -30.56220156 23.7183423 -25.64428711 21.71289062 C-20.86402471 20.46298378 -15.89103601 20.83183628 -10.98828125 20.9453125 C-9.87517578 20.95884766 -8.76207031 20.97238281 -7.61523438 20.98632812 C-4.88490913 21.02148253 -2.15560381 21.07069144 0.57421875 21.1328125 C0.28994458 19.54813522 -0.00352943 17.9651068 -0.30078125 16.3828125 C-0.46320313 15.50109375 -0.625625 14.619375 -0.79296875 13.7109375 C-1.39374389 11.26333506 -2.20575242 9.32681393 -3.42578125 7.1328125 C-12.42053375 6.83482683 -19.95883158 6.68862958 -28.42578125 10.1328125 C-29.41578125 10.1328125 -30.40578125 10.1328125 -31.42578125 10.1328125 C-31.42578125 7.1628125 -31.42578125 4.1928125 -31.42578125 1.1328125 C-22.12037471 -3.73137728 -9.41094123 -5.83845811 0 0 Z " fill="#BD9C7B" transform="translate(446.42578125,348.8671875)"/>
<path d="M0 0 C2.97 0 5.94 0 9 0 C9 10.23 9 20.46 9 31 C11.97 29.02 14.94 27.04 18 25 C22.21955958 22.89022021 27.41862095 23.48904419 32 24 C37.96541865 26.31135996 42.08729649 30.42193273 45.08935547 36.0378418 C46.40984821 40.33316042 46.24572477 44.42709405 46.1953125 48.89453125 C46.1924826 49.84188644 46.18965271 50.78924164 46.18673706 51.76530457 C46.17557187 54.78116666 46.15047389 57.79672816 46.125 60.8125 C46.11496547 62.86132383 46.10584045 64.91015232 46.09765625 66.95898438 C46.07564449 71.97277148 46.04113971 76.98633483 46 82 C42.7 82 39.4 82 36 82 C35.970271 80.24526367 35.970271 80.24526367 35.93994141 78.45507812 C35.86347389 74.08638138 35.77482197 69.71799996 35.68261719 65.34960938 C35.64449662 63.46425636 35.60961519 61.57883479 35.578125 59.69335938 C35.53210468 56.97240821 35.47417386 54.25192207 35.4140625 51.53125 C35.40251129 50.69758911 35.39096008 49.86392822 35.37905884 49.00500488 C35.24771404 43.71526437 34.45668564 39.09073296 33 34 C30.10190611 33.83749006 27.21295149 33.71892364 24.3125 33.625 C23.49587891 33.57472656 22.67925781 33.52445312 21.83789062 33.47265625 C21.04189453 33.45332031 20.24589844 33.43398438 19.42578125 33.4140625 C18.69786377 33.3826416 17.96994629 33.3512207 17.2199707 33.31884766 C14.36313679 34.19540838 12.80060452 35.74121076 11.00422668 38.09439087 C9.08326001 41.73959537 9.27461649 45.51404248 9.29296875 49.5546875 C9.27028679 50.90700974 9.27028679 50.90700974 9.24714661 52.28665161 C9.20435886 55.14969061 9.19544032 58.01167348 9.1875 60.875 C9.16434873 62.82294457 9.13898208 64.77086415 9.11132812 66.71875 C9.04856394 71.47925966 9.01615901 76.23911325 9 81 C6.03 81 3.06 81 0 81 C0 54.27 0 27.54 0 0 Z " fill="#C09F7E" transform="translate(518,322)"/>
<path d="M0 0 C3.63 0 7.26 0 11 0 C11.44730469 1.30453125 11.89460938 2.6090625 12.35546875 3.953125 C15.30225241 12.49168214 18.2959 20.94071788 21.8671875 29.2421875 C27 41.73793103 27 41.73793103 27 46 C27.66 46 28.32 46 29 46 C29.23847656 44.78183594 29.47695312 43.56367188 29.72265625 42.30859375 C31.11403341 36.05167956 33.28869359 30.09234933 35.4375 24.0625 C37.92977544 17.02476952 40.37578425 10.01279925 42.40649414 2.82592773 C43 1 43 1 44 0 C45.85287502 -0.07226502 47.70833878 -0.0838122 49.5625 -0.0625 C50.57441406 -0.05347656 51.58632812 -0.04445313 52.62890625 -0.03515625 C53.41136719 -0.02355469 54.19382813 -0.01195312 55 0 C53.94549517 3.25264689 52.87984872 6.50154738 51.8125 9.75 C51.52052734 10.65105469 51.22855469 11.55210937 50.92773438 12.48046875 C49.0109731 18.29258357 46.84541031 23.93600799 44.45239258 29.56787109 C43.05206516 32.87696555 41.68583742 36.19795472 40.32878113 39.52493286 C39.03691429 42.68977298 37.73547094 45.85064091 36.43383789 49.01147461 C35.76494906 50.64018039 35.0989712 52.27008447 34.43579102 53.90112305 C33.46362646 56.29020374 32.48091273 58.6747064 31.49609375 61.05859375 C31.20431747 61.78259872 30.9125412 62.5066037 30.61192322 63.25254822 C28.25407954 68.91425891 25.65336809 73.72719773 19.8125 76.3125 C14.1668337 78.6267566 8.79006043 78.93002014 3 77 C3.33 74.03 3.66 71.06 4 68 C4.73605469 67.97421875 5.47210938 67.9484375 6.23046875 67.921875 C12.474663 67.5879161 12.474663 67.5879161 18.125 65.125 C21.45368687 61.35248822 21.27937081 57.85382807 21 53 C20.04020791 49.80886891 20.04020791 49.80886891 18.5859375 46.68359375 C18.07160156 45.50603516 17.55726562 44.32847656 17.02734375 43.11523438 C16.47694958 41.88914908 15.92616745 40.66323787 15.375 39.4375 C14.3203125 37.04036458 13.265625 34.64322917 12.2109375 32.24609375 C11.6835498 31.05693359 11.15616211 29.86777344 10.61279297 28.64257812 C8.96987482 24.9319607 7.33426073 21.21871243 5.71875 17.49609375 C5.24115234 16.40095459 4.76355469 15.30581543 4.27148438 14.17749023 C2.41334015 9.5339136 1.1813118 4.85650407 0 0 Z " fill="#1D2631" transform="translate(71,347)"/>
<path d="M0 0 C3.92543989 3.16052548 6.75465088 6.90687735 7.76171875 11.90625 C8.61827921 20.08640244 8.23316284 27.79569671 3.76171875 34.90625 C-0.84548314 38.76125567 -4.99568054 40.35362755 -11.046875 40.2421875 C-15.09704019 39.62130656 -18.3696043 37.79903348 -21.23828125 34.90625 C-24.96122612 29.34321003 -25.87181347 24.37996711 -25.73828125 17.78125 C-25.75375 17.00910156 -25.76921875 16.23695313 -25.78515625 15.44140625 C-25.7490311 10.14003984 -24.69618341 7.12398913 -21.23828125 2.90625 C-15.69689287 -1.96345494 -6.73224799 -3.28975469 0 0 Z " fill="#F8F9F8" transform="translate(172.23828125,356.09375)"/>
<path d="M0 0 C0.09922585 4.18084291 0.17163374 8.36105371 0.21972656 12.54272461 C0.23978421 13.96374457 0.26703778 15.38468259 0.30175781 16.80541992 C0.35054011 18.85355895 0.37302539 20.90060275 0.390625 22.94921875 C0.41157227 24.17987061 0.43251953 25.41052246 0.45410156 26.6784668 C-0.08538133 30.6245231 -1.23514302 32.19255337 -4 35 C-9.0415768 38.48108874 -14.0614005 38.85113478 -20 38 C-26.1912093 35.1336994 -28.07100398 30.85799205 -31 25 C-31.6680915 16.64885628 -31.35542012 9.55378444 -26.25 2.625 C-18.68945451 -2.83539396 -8.68647236 -1.50335581 0 0 Z " fill="#F9FAFA" transform="translate(247,356)"/>
<path d="M0 0 C3.733125 -0.020625 7.46625 -0.04125 11.3125 -0.0625 C13.07267456 -0.07615601 13.07267456 -0.07615601 14.8684082 -0.09008789 C16.25805786 -0.09383423 16.25805786 -0.09383423 17.67578125 -0.09765625 C18.62364502 -0.10289307 19.57150879 -0.10812988 20.5480957 -0.11352539 C23 0 23 0 26 1 C26 1.66 26 2.32 26 3 C26.78375 3.226875 27.5675 3.45375 28.375 3.6875 C31 5 31 5 32.140625 7.1796875 C33.82311744 12.70132178 34.24721496 19.58623123 32.2421875 25.07421875 C29.66887207 29.0962905 26.46106971 31.51297676 22 33 C20.29983156 33.08178114 18.59663703 33.10749501 16.89453125 33.09765625 C16.00870361 33.09515869 15.12287598 33.09266113 14.21020508 33.09008789 C13.0889624 33.08098389 11.96771973 33.07187988 10.8125 33.0625 C7.244375 33.041875 3.67625 33.02125 0 33 C0 22.11 0 11.22 0 0 Z " fill="#FCFBFA" transform="translate(357,334)"/>
<path d="M0 0 C2.97 0 5.94 0 9 0 C9 5.28 9 10.56 9 16 C13.62 16 18.24 16 23 16 C23 18.31 23 20.62 23 23 C18.38 23 13.76 23 9 23 C9.06881235 28.21491148 9.15674623 33.42901615 9.26245117 38.64331055 C9.29571464 40.41730812 9.32374218 42.1914119 9.34643555 43.96557617 C9.37995602 46.51527176 9.43226865 49.06399292 9.48828125 51.61328125 C9.49467117 52.40712723 9.5010611 53.20097321 9.50764465 54.01887512 C9.59252369 58.25543194 9.59252369 58.25543194 11.36328125 62.00585938 C13.81840107 63.49709564 15.85081261 63.28761838 18.6875 63.1875 C20.17830078 63.14689453 20.17830078 63.14689453 21.69921875 63.10546875 C22.45847656 63.07066406 23.21773438 63.03585937 24 63 C24 65.64 24 68.28 24 71 C18.97417048 73.51291476 11.69856954 72.51563718 6.5 70.9375 C2.78140599 68.05558964 0.41166447 64.52370258 -0.34777832 59.86795044 C-0.46019343 57.49674668 -0.45059493 55.15822507 -0.390625 52.78515625 C-0.38496521 51.92941513 -0.37930542 51.07367401 -0.37347412 50.19200134 C-0.35123507 47.48157789 -0.30106425 44.77251809 -0.25 42.0625 C-0.22991878 40.215514 -0.21167086 38.3685071 -0.1953125 36.52148438 C-0.15141147 32.0138043 -0.08247269 27.50713267 0 23 C-2.64 23 -5.28 23 -8 23 C-8 20.69 -8 18.38 -8 16 C-5.36 16 -2.72 16 0 16 C0 10.72 0 5.44 0 0 Z " fill="#BD9C7A" transform="translate(478,332)"/>
<path d="M0 0 C1.8871875 0.0309375 1.8871875 0.0309375 3.8125 0.0625 C3.8125 0.7225 3.8125 1.3825 3.8125 2.0625 C4.534375 2.124375 5.25625 2.18625 6 2.25 C9.7122565 3.32242966 11.32471068 5.16007913 13.8125 8.0625 C14.75488698 10.88966095 14.94715647 12.69426123 14.9375 15.625 C14.94136719 16.80255859 14.94136719 16.80255859 14.9453125 18.00390625 C14.8125 20.0625 14.8125 20.0625 13.8125 22.0625 C13.1525 22.0625 12.4925 22.0625 11.8125 22.0625 C11.503125 22.92875 11.503125 22.92875 11.1875 23.8125 C6.99080537 30.67981848 -2.13972859 32.31486432 -9.4375 34.1875 C-12.349017 34.86685397 -15.25494325 35.48610091 -18.1875 36.0625 C-19.06834552 12.78785109 -19.06834552 12.78785109 -14.1875 6.0625 C-10.04425121 2.05108185 -5.78435758 -0.09482553 0 0 Z " fill="#FBFBF8" transform="translate(323.1875,132.9375)"/>
<path d="M0 0 C2.4375 0.6875 2.4375 0.6875 5 2 C6.0625 4.25 6.0625 4.25 6 7 C4.125 10.0625 4.125 10.0625 2 13 C-0.13498523 19.35056115 -0.14379503 27.38797115 2.625 33.5 C4.82691249 37.16985415 7.02537928 39.2335019 11 41 C16.48235949 41.96585192 20.7206917 41.55341254 25.5 38.625 C27.55182707 37.18703923 29.22248854 35.77751146 31 34 C30.55491959 39.04424468 28.39019075 41.44443409 25 45 C24.34 45 23.68 45 23 45 C23 45.66 23 46.32 23 47 C23.99 47.33 24.98 47.66 26 48 C19.26963071 50.93688842 13.63480624 52.47147989 6.453125 50.19140625 C-0.01588716 47.35876305 -4.64016121 43.25731445 -8 37 C-9.2276726 32.03220853 -9.18332534 27.02641237 -9.1875 21.9375 C-9.19974609 21.14794922 -9.21199219 20.35839844 -9.22460938 19.54492188 C-9.23945234 13.64237126 -8.71631191 9.80212751 -4.5 5.375 C-3.675 4.59125 -2.85 3.8075 -2 3 C-1.34 2.01 -0.68 1.02 0 0 Z " fill="#26303D" transform="translate(216,352)"/>
<path d="M0 0 C1.09731445 0.00676758 1.09731445 0.00676758 2.21679688 0.01367188 C3.99873419 0.02531852 5.78062863 0.04324809 7.5625 0.0625 C8.18009201 9.70379757 8.18009201 9.70379757 6 14.5 C1.54351116 19.18502673 -2.09371608 21.27349471 -8.5 21.5625 C-13.3184037 21.37152668 -15.82588349 20.21108875 -19.4375 17.0625 C-21.05738799 13.82272402 -21.00270367 10.5641641 -20.4375 7.0625 C-19.09709381 4.25546104 -17.89004539 3.20195449 -15.4375 1.0625 C-10.28506738 -0.00879787 -5.23357022 -0.0622474 0 0 Z " fill="#F9F9F8" transform="translate(439.4375,375.9375)"/>
<path d="M0 0 C0.84755859 0.00322266 1.69511719 0.00644531 2.56835938 0.00976562 C3.44943359 0.01814453 4.33050781 0.02652344 5.23828125 0.03515625 C6.57729492 0.04192383 6.57729492 0.04192383 7.94335938 0.04882812 C10.14586198 0.06060621 12.3483301 0.07854144 14.55078125 0.09765625 C14.55078125 4.05765625 14.55078125 8.01765625 14.55078125 12.09765625 C13.89078125 12.09765625 13.23078125 12.09765625 12.55078125 12.09765625 C12.24140625 12.99484375 12.24140625 12.99484375 11.92578125 13.91015625 C9.8940968 17.14238151 8.16288621 17.830251 4.55078125 19.09765625 C-0.61572041 19.80392394 -5.70500512 20.21354042 -10.13671875 17.09765625 C-12.70753181 13.76254742 -13.29115625 12.14009214 -12.98046875 8.03125 C-12.07444123 4.73357631 -10.09198418 3.12582507 -7.44921875 1.09765625 C-4.6251011 0.1562837 -2.92003843 -0.01959757 0 0 Z " fill="#F6F7F6" transform="translate(298.44921875,376.90234375)"/>
<path d="M0 0 C2.64785434 3.97178151 1.76745814 6.00155092 0.99609375 10.52734375 C1.0010294 13.65160875 2.00985548 14.67237461 4 17 C4.625 19.375 4.625 19.375 4 22 C-0.85445395 27.67068957 -7.60048208 31.13959094 -15 32 C-23.35443619 32.62391964 -31.89977522 31.73348319 -39 27 C-38.33333333 24.33333333 -37.66666667 21.66666667 -37 19 C-31.42424242 19.76033058 -31.42424242 19.76033058 -29.1953125 21.01953125 C-24.53469768 23.10105139 -18.99087948 22.42778967 -14 22 C-10.4436007 20.68796267 -10.4436007 20.68796267 -8 19 C-7.34 19 -6.68 19 -6 19 C-4.32512874 15.14272073 -3.32476197 11.35648994 -2.4375 7.25 C-1.10872675 1.10872675 -1.10872675 1.10872675 0 0 Z " fill="#26303B" transform="translate(250,394)"/>
<path d="M0 0 C0.33 0 0.66 0 1 0 C1.02578125 0.99 1.0515625 1.98 1.078125 3 C1.27117217 13.70351007 1.27117217 13.70351007 6 23 C9.84873254 26.40915649 13.61403467 27.55025837 18.80859375 27.265625 C26.56500263 26.65225076 26.56500263 26.65225076 33 23 C33.28875 23.61875 33.5775 24.2375 33.875 24.875 C34.93720042 27.13325765 34.93720042 27.13325765 37 29 C30.62843867 34.59925086 24.86210179 36.57240453 16.5625 36.5 C15.81186279 36.49500488 15.06122559 36.49000977 14.2878418 36.48486328 C8.34744732 36.29718332 4.39784129 35.1487025 0 31 C-0.60585937 30.49597656 -1.21171875 29.99195313 -1.8359375 29.47265625 C-3.5625 27.9375 -3.5625 27.9375 -6 25 C-5.84630725 22.05524698 -4.97493498 20.97226332 -2.984375 18.76953125 C-0.32451386 15.05724474 -0.33766938 12.14668344 -0.25 7.6875 C-0.22035156 6.94693359 -0.19070312 6.20636719 -0.16015625 5.44335938 C-0.08994155 3.62947954 -0.04264952 1.81473722 0 0 Z " fill="#1C2736" transform="translate(146,368)"/>
<path d="M0 0 C1.65 0.99 3.3 1.98 5 3 C4.46604696 7.53860088 2.5802582 10.29087883 0 14 C-1.40515302 18.21545906 -1.24576854 22.51693254 -1.25390625 26.93164062 C-1.45358735 32.54898521 -3.06382554 35.0074154 -7 39 C-9.57698417 36.7591442 -10.40963253 35.34357651 -11 32 C-12.06834864 13.38607945 -12.06834864 13.38607945 -8 6 C-4.9375 3.5 -4.9375 3.5 -2 2 C-1.34 1.34 -0.68 0.68 0 0 Z " fill="#0C1520" transform="translate(148,351)"/>
<path d="M0 0 C2.4375 0.6875 2.4375 0.6875 5 2 C6.0625 4.25 6.0625 4.25 6 7 C4.73779907 9.04563599 3.39712274 11.04402816 2 13 C0.16461666 17.61871192 -0.56944002 22.21603556 -1.125 27.125 C-1.21136719 27.82753906 -1.29773438 28.53007812 -1.38671875 29.25390625 C-1.77784702 32.53814202 -2 35.68672888 -2 39 C-2 39.66 -2 40.32 -2 41 C-3.875 40.6875 -3.875 40.6875 -6 40 C-9.64389858 34.53415213 -9.18227672 28.30467607 -9.1875 21.9375 C-9.19974609 21.14794922 -9.21199219 20.35839844 -9.22460938 19.54492188 C-9.23945234 13.64237126 -8.71631191 9.80212751 -4.5 5.375 C-3.675 4.59125 -2.85 3.8075 -2 3 C-1.34 2.01 -0.68 1.02 0 0 Z " fill="#101922" transform="translate(216,352)"/>
<path d="M0 0 C-1.32 0.99 -2.64 1.98 -4 3 C-3.67 5.31 -3.34 7.62 -3 10 C-3.845625 9.34 -4.69125 8.68 -5.5625 8 C-12.70450513 3.89807445 -22.68542901 5.30461839 -30.4375 7 C-32.2009375 7.495 -32.2009375 7.495 -34 8 C-34 5.03 -34 2.06 -34 -1 C-22.74750604 -5.154767 -10.61912357 -6.44629724 0 0 Z " fill="#27303B" transform="translate(316,350)"/>
<path d="M0 0 C0.33 0 0.66 0 1 0 C1.02578125 0.99 1.0515625 1.98 1.078125 3 C1.23681364 13.72815971 1.23681364 13.72815971 6 23 C8.53349162 24.96672581 11.13948069 26.55585433 14 28 C13.67 28.99 13.34 29.98 13 31 C10.4375 32.1875 10.4375 32.1875 8 33 C8 33.66 8 34.32 8 35 C1.96311298 33.7926226 -2.52748368 29.98762507 -6 25 C-5.9580812 22.01777688 -4.98907581 20.98791141 -2.984375 18.76953125 C-0.32451386 15.05724474 -0.33766938 12.14668344 -0.25 7.6875 C-0.22035156 6.94693359 -0.19070312 6.20636719 -0.16015625 5.44335938 C-0.08994155 3.62947954 -0.04264952 1.81473722 0 0 Z " fill="#24303E" transform="translate(146,368)"/>
<path d="M0 0 C1 2 1 2 0.0625 5.125 C-0.288125 6.07375 -0.63875 7.0225 -1 8 C1.97 8.495 1.97 8.495 5 9 C-0.73400232 13.67215004 -5.75235267 14.58361205 -13 14 C-13.99 13.67 -14.98 13.34 -16 13 C-15.67 10.03 -15.34 7.06 -15 4 C-14.25234375 3.96261719 -13.5046875 3.92523438 -12.734375 3.88671875 C-11.74953125 3.82097656 -10.7646875 3.75523437 -9.75 3.6875 C-8.77546875 3.62949219 -7.8009375 3.57148438 -6.796875 3.51171875 C-3.74658389 2.95363476 -2.29288724 2.03630224 0 0 Z " fill="#273341" transform="translate(90,411)"/>
<path d="M0 0 C3.63 0 7.26 0 11 0 C12.92399782 4.80999454 13.51914998 6.98155022 13 12 C11.86450312 14.53265173 10.52642287 16.66266498 9 19 C3.95588142 13.08620581 1.67496394 7.47291605 0 0 Z " fill="#1E2631" transform="translate(71,347)"/>
<path d="M0 0 C1 2 1 2 0.37915039 4.06298828 C-0.13143921 5.30411377 -0.13143921 5.30411377 -0.65234375 6.5703125 C-1.01650391 7.46621094 -1.38066406 8.36210937 -1.75585938 9.28515625 C-2.14580078 10.22230469 -2.53574219 11.15945313 -2.9375 12.125 C-3.51661133 13.54232422 -3.51661133 13.54232422 -4.10742188 14.98828125 C-5.06475846 17.32843735 -6.02919991 19.66540428 -7 22 C-8.5 20.6875 -8.5 20.6875 -10 19 C-10 18.01 -10 17.02 -10 16 C-10.99 16 -11.98 16 -13 16 C-13.33 16.99 -13.66 17.98 -14 19 C-14.66 19 -15.32 19 -16 19 C-14.47275469 12.60543632 -13.18720934 8.20584541 -8 4 C-7.34 4.33 -6.68 4.66 -6 5 C-3.9519572 4.9049261 -3.9519572 4.9049261 -2 4 C-0.71563266 2.0162233 -0.71563266 2.0162233 0 0 Z " fill="#26303A" transform="translate(119,363)"/>
<path d="M0 0 C2.64785434 3.97178151 1.76745814 6.00155092 0.99609375 10.52734375 C1.00102736 13.65031678 2.0368488 14.65512496 4 17 C4.3125 19.625 4.3125 19.625 4 22 C3.34 22.66 2.68 23.32 2 24 C0.68 24 -0.64 24 -2 24 C-2 24.66 -2 25.32 -2 26 C-3.65 25.67 -5.3 25.34 -7 25 C-6.29709961 21.10143909 -5.25133554 17.4023567 -4.0625 13.625 C-2.64921422 9.09734628 -1.27488925 4.56835315 0 0 Z " fill="#101A26" transform="translate(250,394)"/>
<path d="M0 0 C3 1 3 1 5 3 C5.83570575 8.71065594 3.47827892 13.02131467 1 18 C0.01 17.67 -0.98 17.34 -2 17 C-2 16.34 -2 15.68 -2 15 C-2.99 15 -3.98 15 -5 15 C-4.85892253 13.54119891 -4.71197585 12.08296449 -4.5625 10.625 C-4.48128906 9.81289063 -4.40007812 9.00078125 -4.31640625 8.1640625 C-4 6 -4 6 -3 4 C-2.34 4 -1.68 4 -1 4 C-0.67 2.68 -0.34 1.36 0 0 Z " fill="#161E28" transform="translate(106,378)"/>
<path d="M0 0 C1.65 0.99 3.3 1.98 5 3 C4.4634127 7.56099209 2.53342375 10.23824958 0 14 C-1.24324147 17.2249208 -1.24324147 17.2249208 -2 20 C-2.66 19.67 -3.32 19.34 -4 19 C-4.35437205 16.70779595 -4.44336611 14.44461018 -4.55859375 12.12890625 C-4.82049547 9.61259298 -4.82049547 9.61259298 -8 8 C-6.74157232 4.22471696 -5.37506571 3.89332955 -2 2 C-1.34 1.34 -0.68 0.68 0 0 Z " fill="#18222F" transform="translate(148,351)"/>
<path d="M0 0 C0 0.66 0 1.32 0 2 C1.65 2.33 3.3 2.66 5 3 C4.67 3.99 4.34 4.98 4 6 C8.95 6 13.9 6 19 6 C19 6.33 19 6.66 19 7 C18.44538086 7.02505615 17.89076172 7.0501123 17.31933594 7.07592773 C14.79601157 7.19227927 12.27302464 7.31482754 9.75 7.4375 C8.44095703 7.49647461 8.44095703 7.49647461 7.10546875 7.55664062 C6.26113281 7.59853516 5.41679687 7.64042969 4.546875 7.68359375 C3.77182617 7.72025146 2.99677734 7.75690918 2.19824219 7.79467773 C0.0425024 7.99603015 -1.91801475 8.41729297 -4 9 C-4.33 7.02 -4.66 5.04 -5 3 C-5.99 3.66 -6.98 4.32 -8 5 C-10.1875 4.625 -10.1875 4.625 -12 4 C-10.75539217 3.32332002 -9.50403104 2.65905281 -8.25 2 C-7.55390625 1.62875 -6.8578125 1.2575 -6.140625 0.875 C-4 0 -4 0 0 0 Z " fill="#34404A" transform="translate(294,370)"/>
<path d="M0 0 C1.32 0 2.64 0 4 0 C4.48951049 6.36363636 4.48951049 6.36363636 2.125 9.4375 C0 11 0 11 -2 11 C-2.66 8.69 -3.32 6.38 -4 4 C-3.01 4 -2.02 4 -1 4 C-0.67 2.68 -0.34 1.36 0 0 Z " fill="#111822" transform="translate(88,375)"/>
<path d="M0 0 C0.33 0 0.66 0 1 0 C1.06058594 0.63808594 1.12117187 1.27617187 1.18359375 1.93359375 C1.26738281 2.75988281 1.35117188 3.58617187 1.4375 4.4375 C1.55931641 5.67306641 1.55931641 5.67306641 1.68359375 6.93359375 C1.78930815 8.98662025 1.78930815 8.98662025 3 10 C3.07205511 11.68608966 3.08386068 13.37500659 3.0625 15.0625 C3.05347656 15.98160156 3.04445312 16.90070313 3.03515625 17.84765625 C3.02355469 18.55792969 3.01195312 19.26820313 3 20 C1.02 20.99 1.02 20.99 -1 22 C-1.02700675 19.08327116 -1.04684237 16.16679323 -1.0625 13.25 C-1.07087891 12.425 -1.07925781 11.6 -1.08789062 10.75 C-1.09111328 9.95078125 -1.09433594 9.1515625 -1.09765625 8.328125 C-1.10289307 7.5949707 -1.10812988 6.86181641 -1.11352539 6.10644531 C-0.9975109 3.9538151 -0.59073271 2.0685865 0 0 Z " fill="#1C242F" transform="translate(208,361)"/>
<path d="M0 0 C0.33 0 0.66 0 1 0 C1.02715383 1.74991334 1.04646551 3.49994945 1.0625 5.25 C1.07410156 6.22453125 1.08570313 7.1990625 1.09765625 8.203125 C1.01195577 10.65758678 0.70706066 12.66168914 0 15 C-0.66 15 -1.32 15 -2 15 C-4.20914 11.68629 -4.22481553 10.6553979 -4.125 6.8125 C-4.10695313 5.91144531 -4.08890625 5.01039063 -4.0703125 4.08203125 C-4.04710937 3.39496094 -4.02390625 2.70789063 -4 2 C-3.01 2 -2.02 2 -1 2 C-0.67 1.34 -0.34 0.68 0 0 Z " fill="#121A24" transform="translate(281,383)"/>
<path d="M0 0 C1.98 0.99 1.98 0.99 4 2 C4.10867302 3.58179615 4.18589827 5.16577153 4.25 6.75 C4.29640625 7.63171875 4.3428125 8.5134375 4.390625 9.421875 C4 12 4 12 0 16 C0 10.72 0 5.44 0 0 Z " fill="#1A232E" transform="translate(137,367)"/>
<path d="M0 0 C0.66 0 1.32 0 2 0 C2.66 6.93 3.32 13.86 4 21 C0.63715626 15.95573439 -1.56317926 12.19497189 -1 6 C-0.67 5.34 -0.34 4.68 0 4 C0 2.68 0 1.36 0 0 Z " fill="#425D64" transform="translate(271,147)"/>
<path d="M0 0 C0.33 0.99 0.66 1.98 1 3 C1.66 3 2.32 3 3 3 C3.27748242 4.41154099 3.52093516 5.82979799 3.75 7.25 C3.88921875 8.03890625 4.0284375 8.8278125 4.171875 9.640625 C4 12 4 12 0 16 C0 10.72 0 5.44 0 0 Z " fill="#4E6A3D" transform="translate(273,165)"/>
<path d="M0 0 C4.26086957 6.39130435 4.26086957 6.39130435 3.625 10.3125 C3.41875 10.869375 3.2125 11.42625 3 12 C2.34 11.34 1.68 10.68 1 10 C0.38125 10.495 -0.2375 10.99 -0.875 11.5 C-3 13 -3 13 -5 13 C-4.58419156 10.58831107 -4.33582033 9.30783531 -2.5 7.625 C-0.36072601 5.30745317 -0.340489 3.06440101 0 0 Z " fill="#373F49" transform="translate(92,376)"/>
<path d="M0 0 C0.671875 1.765625 0.671875 1.765625 1 4 C-0.109375 5.921875 -0.109375 5.921875 -1.75 7.75 C-2.54664063 8.67039062 -2.54664063 8.67039062 -3.359375 9.609375 C-5 11 -5 11 -8 11 C-8.33 9.68 -8.66 8.36 -9 7 C-8.43410156 6.66226562 -7.86820313 6.32453125 -7.28515625 5.9765625 C-6.55167969 5.53054688 -5.81820312 5.08453125 -5.0625 4.625 C-4.33160156 4.18414062 -3.60070312 3.74328125 -2.84765625 3.2890625 C-0.86227728 2.1226016 -0.86227728 2.1226016 0 0 Z " fill="#2C3643" transform="translate(246,386)"/>
<path d="M0 0 C0.33 0 0.66 0 1 0 C2.42002108 6.7831364 3.22731216 13.06697907 3 20 C2.67 20 2.34 20 2 20 C1.34 17.69 0.68 15.38 0 13 C-0.33 13 -0.66 13 -1 13 C-0.67 8.71 -0.34 4.42 0 0 Z " fill="#66878F" transform="translate(369,94)"/>
<path d="M0 0 C0.99 0.33 1.98 0.66 3 1 C3.61528766 6.07612318 1.61658349 8.82982006 -1 13 C-1.96070434 10.11788698 -2.10581883 8.30149956 -2.0625 5.3125 C-2.05347656 4.50425781 -2.04445313 3.69601562 -2.03515625 2.86328125 C-2.02355469 2.24839844 -2.01195313 1.63351562 -2 1 C-1.34 0.67 -0.68 0.34 0 0 Z " fill="#0C141D" transform="translate(81,353)"/>
<path d="M0 0 C0.66 0.33 1.32 0.66 2 1 C2.2358396 6.77807024 1.86783046 11.51324804 0 17 C-0.33 17 -0.66 17 -1 17 C-1.02709444 14.91673869 -1.04643873 12.83337559 -1.0625 10.75 C-1.07410156 9.58984375 -1.08570313 8.4296875 -1.09765625 7.234375 C-1.01782092 4.59022872 -0.78643778 2.50173909 0 0 Z " fill="#395863" transform="translate(366,90)"/>
<path d="M0 0 C5.61 0 11.22 0 17 0 C15.02 0.99 15.02 0.99 13 2 C12.67 2.66 12.34 3.32 12 4 C11.01 4 10.02 4 9 4 C9 3.34 9 2.68 9 2 C6.03 1.67 3.06 1.34 0 1 C0 0.67 0 0.34 0 0 Z " fill="#0F1923" transform="translate(294,371)"/>
<path d="M0 0 C0.66 0 1.32 0 2 0 C4 2 4 2 4.1875 5 C4 8 4 8 3 10 C2.34 10 1.68 10 1 10 C-1.125 3.375 -1.125 3.375 0 0 Z " fill="#17202C" transform="translate(107,379)"/>
<path d="M0 0 C0.86211636 3.44846545 1.08040559 4.72632518 0.5625 8 C0.13369186 10.77911101 0 13.13631124 0 16 C0 16.66 0 17.32 0 18 C-1.9375 17.6875 -1.9375 17.6875 -4 17 C-4.33 16.01 -4.66 15.02 -5 14 C-4.34 14 -3.68 14 -3 14 C-2.01 9.38 -1.02 4.76 0 0 Z " fill="#141E2A" transform="translate(214,375)"/>
<path d="M0 0 C0.33 0 0.66 0 1 0 C1.19601608 1.74906659 1.38147403 3.49931846 1.5625 5.25 C1.66691406 6.22453125 1.77132813 7.1990625 1.87890625 8.203125 C1.98974468 10.7631352 1.77738092 12.58148159 1 15 C0.34 15 -0.32 15 -1 15 C-1.02685412 12.68756208 -1.04632841 10.3750373 -1.0625 8.0625 C-1.07410156 6.77472656 -1.08570313 5.48695313 -1.09765625 4.16015625 C-1 1 -1 1 0 0 Z " fill="#3C5A67" transform="translate(274,124)"/>
<path d="M0 0 C0.99 0.33 1.98 0.66 3 1 C3 3.64 3 6.28 3 9 C2.01 8.67 1.02 8.34 0 8 C-1.1875 4.9375 -1.1875 4.9375 -2 2 C-1.34 1.34 -0.68 0.68 0 0 Z " fill="#0D1A2A" transform="translate(180,387)"/>
<path d="M0 0 C3.63 0 7.26 0 11 0 C10.67 0.66 10.34 1.32 10 2 C8.35 2 6.7 2 5 2 C4.34 3.98 3.68 5.96 3 8 C1.5268006 5.25002779 0.77595125 3.10380501 0 0 Z " fill="#373F4A" transform="translate(71,347)"/>
<path d="M0 0 C2.46278801 2.46278801 2.99771255 4.70676982 4 8 C0.22454612 6.90931332 -2.47043472 6.0916909 -5 3 C-3.68 3 -2.36 3 -1 3 C-0.67 2.01 -0.34 1.02 0 0 Z " fill="#D4D8D1" transform="translate(269,157)"/>
<path d="M0 0 C0.33 0.99 0.66 1.98 1 3 C-3.455 4.485 -3.455 4.485 -8 6 C-8 5.01 -8 4.02 -8 3 C-5.11165997 0.89229241 -3.61537605 0 0 0 Z " fill="#121C29" transform="translate(222,391)"/>
<path d="M0 0 C0.66 0.33 1.32 0.66 2 1 C1.54625 1.556875 1.0925 2.11375 0.625 2.6875 C-1.03733768 5.05313439 -2.02144543 7.29015658 -3 10 C-3.99 10 -4.98 10 -6 10 C-6 6.41087588 -5.33563446 5.89142971 -3 3.3125 C-2.443125 2.68988281 -1.88625 2.06726563 -1.3125 1.42578125 C-0.879375 0.95527344 -0.44625 0.48476563 0 0 Z " fill="#394149" transform="translate(216,350)"/>
<path d="M0 0 C0.55171875 0.31710937 1.1034375 0.63421875 1.671875 0.9609375 C4.28477989 2.12709975 6.40579002 2.40045711 9.25 2.625 C10.14203125 2.69976562 11.0340625 2.77453125 11.953125 2.8515625 C12.96632813 2.92503906 12.96632813 2.92503906 14 3 C14 3.33 14 3.66 14 4 C12.41870971 4.22331199 10.83478911 4.42804644 9.25 4.625 C7.92742187 4.79902344 7.92742187 4.79902344 6.578125 4.9765625 C3.77140122 5.00207817 2.36615134 4.44843844 0 3 C0 2.01 0 1.02 0 0 Z " fill="#4B545D" transform="translate(288,393)"/>
<path d="M0 0 C0.103125 0.639375 0.20625 1.27875 0.3125 1.9375 C0.539375 2.618125 0.76625 3.29875 1 4 C1.99 4.33 2.98 4.66 4 5 C4 5.99 4 6.98 4 8 C3.01 7.67 2.02 7.34 1 7 C1 6.34 1 5.68 1 5 C0.01 5 -0.98 5 -2 5 C-2 3.68 -2 2.36 -2 1 C-1.34 0.67 -0.68 0.34 0 0 Z " fill="#091117" transform="translate(103,388)"/>
<path d="M0 0 C0.66 0.33 1.32 0.66 2 1 C0.71451591 2.33929505 -0.57858155 3.67128643 -1.875 5 C-2.59429687 5.7425 -3.31359375 6.485 -4.0546875 7.25 C-6 9 -6 9 -8 9 C-6.4169423 4.7257442 -3.49431596 2.73468206 0 0 Z " fill="#728F62" transform="translate(328,191)"/>
<path d="M0 0 C2.475 0.495 2.475 0.495 5 1 C3.25 5.875 3.25 5.875 1 7 C0.67 4.69 0.34 2.38 0 0 Z " fill="#253342" transform="translate(182,389)"/>
<path d="M0 0 C0.33 1.32 0.66 2.64 1 4 C1.66 4 2.32 4 3 4 C3 4.99 3 5.98 3 7 C2.01 7 1.02 7 0 7 C-0.33 7.99 -0.66 8.98 -1 10 C-1.66 10 -2.32 10 -3 10 C-2.01 6.7 -1.02 3.4 0 0 Z " fill="#454C55" transform="translate(106,372)"/>
<path d="M0 0 C2 4 2 4 2 7 C3.98 6.67 5.96 6.34 8 6 C5.08235 7.9451 3.37462715 8.45276317 0 9 C0 6.03 0 3.06 0 0 Z " fill="#D3BCA4" transform="translate(415,350)"/>
<path d="M0 0 C-1.24176695 0.70226141 -2.49385599 1.38629109 -3.75 2.0625 C-4.79414063 2.63677734 -4.79414063 2.63677734 -5.859375 3.22265625 C-8.36140628 4.1312406 -9.5332355 3.88336837 -12 3 C-10.75823305 2.29773859 -9.50614401 1.61370891 -8.25 0.9375 C-7.20585937 0.36322266 -7.20585937 0.36322266 -6.140625 -0.22265625 C-3.63859372 -1.1312406 -2.4667645 -0.88336837 0 0 Z " fill="#435059" transform="translate(294,371)"/>
<path d="M0 0 C2.4375 0.75 2.4375 0.75 5 2 C5.8125 4.125 5.8125 4.125 6 6 C5.34 6 4.68 6 4 6 C3.67 5.34 3.34 4.68 3 4 C0.47266765 3.34444881 0.47266765 3.34444881 -2 3 C-1.34 2.01 -0.68 1.02 0 0 Z " fill="#0D161F" transform="translate(216,352)"/>
<path d="M0 0 C0.33 0.66 0.66 1.32 1 2 C-2.3 2.33 -5.6 2.66 -9 3 C-9 2.34 -9 1.68 -9 1 C-5.8035914 -0.06546953 -3.34252724 -0.07427838 0 0 Z " fill="#4F6D3A" transform="translate(276,224)"/>
<path d="M0 0 C1.32 0 2.64 0 4 0 C3.67 1.65 3.34 3.3 3 5 C1.68 4.34 0.36 3.68 -1 3 C-0.67 2.01 -0.34 1.02 0 0 Z " fill="#40616D" transform="translate(354,109)"/>
<path d="M0 0 C-0.33 0.66 -0.66 1.32 -1 2 C-3.64 2 -6.28 2 -9 2 C-8 0 -8 0 -6.1875 -0.6875 C-3.81180233 -1.02688538 -2.26664171 -0.72856341 0 0 Z " fill="#242F3E" transform="translate(171,396)"/>
<path d="M0 0 C0.66 0.33 1.32 0.66 2 1 C1.0479279 2.00596297 0.08812654 3.00461563 -0.875 4 C-1.40867188 4.556875 -1.94234375 5.11375 -2.4921875 5.6875 C-4 7 -4 7 -6 7 C-4.60667426 3.63279613 -3.0210714 2.0140476 0 0 Z " fill="#CCD0D3" transform="translate(155,356)"/>
<path d="M0 0 C2.31 0 4.62 0 7 0 C4.06171403 2.50298434 1.82097239 3.46930939 -2 4 C-1.34 2.68 -0.68 1.36 0 0 Z " fill="#748F60" transform="translate(360,227)"/>
<path d="M0 0 C2.475 0.495 2.475 0.495 5 1 C5.33 1.99 5.66 2.98 6 4 C3.03 3.505 3.03 3.505 0 3 C0 2.01 0 1.02 0 0 Z " fill="#091621" transform="translate(89,416)"/>
<path d="M0 0 C-0.33 1.32 -0.66 2.64 -1 4 C-2.65 4.33 -4.3 4.66 -6 5 C-6 4.34 -6 3.68 -6 3 C-2.53846154 0 -2.53846154 0 0 0 Z " fill="#131E2B" transform="translate(245,394)"/>
<path d="M0 0 C0.66 0.33 1.32 0.66 2 1 C0.38405168 3.04119788 -1.2856382 5.04072937 -3 7 C-3.66 7 -4.32 7 -5 7 C-3.70700306 4.11562221 -2.34058637 2.12780579 0 0 Z " fill="#E8DED3" transform="translate(533,355)"/>
<path d="M0 0 C2.5 1.3125 2.5 1.3125 5 3 C5 3.99 5 4.98 5 6 C4.34 6 3.68 6 3 6 C3 5.34 3 4.68 3 4 C1.35 3.67 -0.3 3.34 -2 3 C-1.34 2.01 -0.68 1.02 0 0 Z " fill="#09141E" transform="translate(148,351)"/>
<path d="M0 0 C0.6875 1.6875 0.6875 1.6875 1 4 C-1.26153846 8.63076923 -1.26153846 8.63076923 -4 10 C-2.8905928 6.51329166 -1.73662334 3.22515763 0 0 Z " fill="#5C7E89" transform="translate(278,60)"/>
<path d="M0 0 C0.33 0 0.66 0 1 0 C1 1.98 1 3.96 1 6 C-2 7 -2 7 -5 6 C-4.360625 5.38125 -3.72125 4.7625 -3.0625 4.125 C-0.96116416 2.17402388 -0.96116416 2.17402388 0 0 Z " fill="#364451" transform="translate(177,387)"/>
<path d="M0 0 C0.99 0.33 1.98 0.66 3 1 C1.37660195 2.70884005 -0.29319053 4.37446717 -2 6 C-2.66 6 -3.32 6 -4 6 C-2.84826645 3.53199953 -1.95216435 1.95216435 0 0 Z " fill="#CBCFD2" transform="translate(223,357)"/>
<path d="M0 0 C0.66 0.33 1.32 0.66 2 1 C1.0479279 2.00596297 0.08812654 3.00461563 -0.875 4 C-1.40867188 4.556875 -1.94234375 5.11375 -2.4921875 5.6875 C-4 7 -4 7 -6 7 C-4.60667426 3.63279613 -3.0210714 2.0140476 0 0 Z " fill="#3B454D" transform="translate(148,349)"/>
<path d="M0 0 C0.66 0.33 1.32 0.66 2 1 C1.0479279 2.00596297 0.08812654 3.00461563 -0.875 4 C-1.40867187 4.556875 -1.94234375 5.11375 -2.4921875 5.6875 C-4 7 -4 7 -6 7 C-4.60667426 3.63279613 -3.0210714 2.0140476 0 0 Z " fill="#E9E5DA" transform="translate(314,135)"/>
<path d="M0 0 C1.4606285 2.64738916 2 3.89448334 2 7 C1.01 6.67 0.02 6.34 -1 6 C-1.8125 4.0625 -1.8125 4.0625 -2 2 C-1.34 1.34 -0.68 0.68 0 0 Z " fill="#375868" transform="translate(287,48)"/>
</svg>
